<svg width="30" height="29" viewBox="0 0 30 29" fill="none" xmlns="http://www.w3.org/2000/svg">
<path d="M7.93125 6.93365C11.8187 3.04615 18.1 3.0274 22.0125 6.87115L19.4375 9.4399C19.0063 9.87115 18.8812 10.5149 19.1125 11.0774C19.3438 11.6399 19.8937 12.0024 20.5 12.0024H27.9688H28.5C29.3312 12.0024 30 11.3337 30 10.5024V2.5024C30 1.89615 29.6375 1.34615 29.075 1.1149C28.5125 0.883651 27.8687 1.00865 27.4375 1.4399L24.8375 4.0399C19.3625 -1.36635 10.5437 -1.3476 5.1 4.1024C3.575 5.6274 2.475 7.42115 1.8 9.3399C1.43125 10.3836 1.98125 11.5212 3.01875 11.8899C4.05625 12.2586 5.2 11.7087 5.56875 10.6712C6.05 9.30865 6.83125 8.0274 7.93125 6.93365ZM0 17.5024V17.9774V18.0212V25.5024C0 26.1087 0.3625 26.6587 0.925 26.8899C1.4875 27.1212 2.13125 26.9962 2.5625 26.5649L5.1625 23.9649C10.6375 29.3712 19.4562 29.3524 24.9 23.9024C26.425 22.3774 27.5312 20.5837 28.2062 18.6712C28.575 17.6274 28.025 16.4899 26.9875 16.1212C25.95 15.7524 24.8062 16.3024 24.4375 17.3399C23.9562 18.7024 23.175 19.9837 22.075 21.0774C18.1875 24.9649 11.9062 24.9837 7.99375 21.1399L10.5625 18.5649C10.9937 18.1337 11.1187 17.4899 10.8875 16.9274C10.6562 16.3649 10.1062 16.0024 9.5 16.0024H2.025H1.98125H1.5C0.66875 16.0024 0 16.6712 0 17.5024Z" fill="white"/>
</svg>
