<svg width="32" height="32" viewBox="0 0 32 32" fill="none" xmlns="http://www.w3.org/2000/svg">
<path d="M18 2C18 0.89375 17.1063 0 16 0C14.8938 0 14 0.89375 14 2V17.1688L9.4125 12.5813C8.63125 11.8 7.3625 11.8 6.58125 12.5813C5.8 13.3625 5.8 14.6313 6.58125 15.4125L14.5813 23.4125C15.3625 24.1938 16.6313 24.1938 17.4125 23.4125L25.4125 15.4125C26.1938 14.6313 26.1938 13.3625 25.4125 12.5813C24.6313 11.8 23.3625 11.8 22.5812 12.5813L18 17.1688V2ZM4 22C1.79375 22 0 23.7938 0 26V28C0 30.2062 1.79375 32 4 32H28C30.2062 32 32 30.2062 32 28V26C32 23.7938 30.2062 22 28 22H21.6562L18.825 24.8312C17.2625 26.3937 14.7312 26.3937 13.1687 24.8312L10.3438 22H4ZM27 25.5C27.3978 25.5 27.7794 25.658 28.0607 25.9393C28.342 26.2206 28.5 26.6022 28.5 27C28.5 27.3978 28.342 27.7794 28.0607 28.0607C27.7794 28.342 27.3978 28.5 27 28.5C26.6022 28.5 26.2206 28.342 25.9393 28.0607C25.658 27.7794 25.5 27.3978 25.5 27C25.5 26.6022 25.658 26.2206 25.9393 25.9393C26.2206 25.658 26.6022 25.5 27 25.5Z" fill="white"/>
</svg>
