<svg width="72" height="96" viewBox="0 0 72 96" fill="none" xmlns="http://www.w3.org/2000/svg">
<path d="M12 0C5.38125 0 0 5.38125 0 12V84C0 90.6188 5.38125 96 12 96H60C66.6188 96 72 90.6188 72 84V30H48C44.6813 30 42 27.3188 42 24V0H12ZM48 0V24H72L48 0ZM29.1937 46.9125L36 56.6438L42.8063 46.9125C44.2313 44.8687 47.0438 44.3813 49.0688 45.8063C51.0938 47.2313 51.6 50.0438 50.175 52.0688L41.4938 64.5L50.1938 76.9125C51.6188 78.9563 51.1312 81.75 49.0875 83.175C47.0437 84.6 44.25 84.1125 42.825 82.0688L36 72.3375L29.1937 82.0688C27.7687 84.1125 24.9563 84.6 22.9313 83.175C20.9062 81.75 20.4 78.9375 21.825 76.9125L30.5062 64.5L21.8063 52.0875C20.3813 50.0437 20.8687 47.25 22.9125 45.825C24.9562 44.4 27.75 44.8875 29.175 46.9313L29.1937 46.9125Z" fill="#3B82F6"/>
</svg>
